<svg width="13" height="13" viewBox="0 0 13 13" fill="none" xmlns="http://www.w3.org/2000/svg">
<path d="M0 10.1562C0 11.7267 1.27319 12.9999 2.84375 12.9999H10.1562C11.7268 12.9999 13 11.7267 13 10.1562V9.57886H0V10.1562Z" fill="#73AF00"/>
<path d="M10.1562 0H2.84375C1.27319 0 0 1.27319 0 2.84375V9.57894H13V2.84375C13 1.27319 11.7268 0 10.1562 0Z" fill="#FF4B55"/>
<path d="M0 2.84398V10.1565C0 11.6912 1.21586 12.9418 2.73683 12.998V0.00244141C1.21586 0.0586816 0 1.30925 0 2.84398Z" fill="#F5F5F5"/>
<path d="M1.67178 9.59366H1.61038V9.42407H1.42915V9.59366H1.30811V9.42407H1.12751V9.59366H1.06731V9.76319H1.00647V9.99173H1.06731V10.1613H1.12751V10.3308H1.30811V10.1613H1.42915V10.3308H1.61038V10.1613H1.67178V9.99173H1.73078V9.76319H1.67178V9.59366ZM1.30811 9.93519H1.24854V10.0482H1.18707V9.93519H1.12751V9.81968H1.18707V9.70669H1.24854V9.81968H1.30811V9.93519ZM1.61038 9.93519H1.55082V10.0482H1.48998V9.93519H1.42915V9.81968H1.48998V9.70669H1.55082V9.81968H1.61038V9.93519Z" fill="#FF4B55"/>
<path d="M2.03154 3.4063H2.09111V3.57589H2.27295V3.4063H2.33315V3.23677H2.39272V3.01069H2.33315V2.83872H2.27295V2.66919H2.09111V2.83872H2.03154V3.01069H1.9707V3.23677H2.03151L2.03154 3.4063ZM2.09111 3.06478H2.15131V2.9542H2.21214V3.06478H2.27298V3.18028H2.21214V3.29327H2.15131V3.18028H2.09111V3.06478Z" fill="#FF4B55"/>
<path d="M1.42902 2.2168H1.30798V2.55591H1.42902V2.2168Z" fill="#FF4B55"/>
<path d="M0.704686 9.59366H0.64385V9.42407H0.463246V9.59366H0.403045V9.76319H0.342285V9.99173H0.403045V10.1613H0.463246V10.3308H0.64385V10.1613H0.704686V9.99173H0.763693V9.76319H0.704686V9.59366ZM0.64385 9.93519H0.584918V10.0482H0.524082V9.93519H0.463246V9.81968H0.524082V9.70669H0.584918V9.81968H0.64385V9.93519Z" fill="#FF4B55"/>
<path d="M1.42902 10.4463H1.30798V10.7854H1.42902V10.4463Z" fill="#FF4B55"/>
<path d="M2.39487 12.0928H2.27441V12.4319H2.39487V12.0928Z" fill="#FF4B55"/>
<path d="M0.945451 11.2402H0.825684V11.5228H0.945451V11.2402Z" fill="#FF4B55"/>
<path d="M1.06716 12.0926H1.18693V11.8076H1.30797V11.5226H1.429V11.8076H1.55065V12.0926H1.67161V12.3752H1.79201V12.6579H1.91247V12.3752H2.03287V12.0926H2.15386V11.8076H2.27487V11.5226H2.39471V11.24H2.27426V10.9549H2.15388V10.6723H2.03289V10.3873H1.91249V10.1047H1.79204V10.3873H1.67044V10.6723H1.55068V10.9549H1.42903V11.24H1.30799V10.9549H1.18696V10.6723H1.06716V10.3873H0.94549V10.1047H0.825723V10.3873H0.704686V10.6723H0.584918V10.9549H0.463246V11.24H0.342285V11.51C0.34457 11.5142 0.346957 11.5184 0.349293 11.5226H0.463271V11.7121C0.484397 11.7444 0.506055 11.7763 0.528449 11.8076H0.584943V11.8837C0.72477 12.0663 0.886203 12.2313 1.06544 12.3752H1.06716V12.0926ZM1.55065 11.24H1.67161V10.9549H1.79201V10.6724H1.91247V10.9549H2.03287V11.24H2.15386V11.5226H2.03287V11.8076H1.91247V12.0927H1.79201V11.8076H1.67161V11.5226H1.55065V11.24ZM0.945516 12.0926H0.825748V11.8076H0.704711V11.5226H0.584943V11.24H0.704711V10.9549H0.825748V10.6723H0.945516V10.9549H1.06719V11.24H1.18696V11.5226H1.06716V11.8076H0.94549L0.945516 12.0926Z" fill="#FF4B55"/>
<path d="M1.42902 0.570557H1.30798V0.909672H1.42902V0.570557Z" fill="#FF4B55"/>
<path d="M1.42902 12.0928H1.30798V12.4319H1.42902V12.0928Z" fill="#FF4B55"/>
<path d="M0.463246 2.2168H0.342285V2.55591H0.463246V2.2168Z" fill="#FF4B55"/>
<path d="M1.06731 3.40875H1.12751V3.57833H1.30811V3.40875H1.42915V3.57833H1.61038V3.40875H1.67178V3.23675H1.73078V3.01067H1.67178V2.8387H1.61038V2.67163H1.42915V2.8387H1.30811V2.67163H1.12751V2.8387H1.06731V3.01067H1.00647V3.23675H1.06731V3.40875ZM1.42915 3.06722H1.48998V2.95418H1.55082V3.06722H1.61038V3.18026H1.55082V3.29576H1.48998V3.18026H1.42915V3.06722ZM1.12751 3.06722H1.18707V2.95418H1.24854V3.06722H1.30811V3.18026H1.24854V3.29576H1.18707V3.18026H1.12751V3.06722Z" fill="#FF4B55"/>
<path d="M0.463246 5.11133H0.342285V5.33736H0.463246V5.11133Z" fill="#FF4B55"/>
<path d="M2.39487 0.570557H2.27441V0.909672H2.39487V0.570557Z" fill="#FF4B55"/>
<path d="M0.463246 3.69141H0.342285V4.03291H0.463246V3.69141Z" fill="#FF4B55"/>
<path d="M0.463246 6.50232V6.49986V6.33032H0.342285V6.49986V6.50232V6.67185H0.463246V6.50232Z" fill="#FF4B55"/>
<path d="M1.42902 3.69141H1.30798V4.03291H1.42902V3.69141Z" fill="#FF4B55"/>
<path d="M0.463246 8.96924H0.342285V9.3083H0.463246V8.96924Z" fill="#FF4B55"/>
<path d="M0.403045 3.40875H0.463246V3.57833H0.64385V3.40875H0.704686V3.23675H0.763693V3.01067H0.704686V2.8387H0.64385V2.67163H0.463246V2.8387H0.403045V3.01067H0.342285V3.23675H0.403045V3.40875ZM0.463246 3.06722H0.522889V2.95418H0.584918V3.06722H0.64385V3.18026H0.584918V3.29576H0.522889V3.18026H0.463246C0.463246 3.18026 0.463246 3.06722 0.463246 3.06722Z" fill="#FF4B55"/>
<path d="M0.463246 10.4463H0.342285V10.7854H0.463246V10.4463Z" fill="#FF4B55"/>
<path d="M0.463246 7.66455H0.342285V7.89058H0.463246V7.66455Z" fill="#FF4B55"/>
<path d="M1.91245 11.2402H1.79199V11.5228H1.91245V11.2402Z" fill="#FF4B55"/>
<path d="M1.42902 6.81445H1.30798V7.09703H1.42902V6.81445Z" fill="#FF4B55"/>
<path d="M1.61023 6.49986V6.50232V6.67185H1.73063V6.50232V6.49986V6.33032H1.61023V6.49986Z" fill="#FF4B55"/>
<path d="M1.42902 5.90527H1.30798V6.18785H1.42902V5.90527Z" fill="#FF4B55"/>
<path d="M1.12748 6.50232V6.49986V6.33032H1.00647V6.49986V6.50232V6.67185H1.12748V6.50232Z" fill="#FF4B55"/>
<path d="M1.48992 6.24463H1.42908V6.33063H1.30804V6.24463H1.24848V6.13159H1.12744V6.30113H1.18701V6.38713H1.24848V6.50017V6.50263V6.61321H1.18701V6.69921H1.12744V6.86875H1.24848V6.75576H1.30804V6.67217H1.42908V6.75576H1.48992V6.86875H1.61032V6.69921H1.55073V6.61321H1.48992V6.50263V6.50017V6.38713H1.55073V6.30113H1.61032V6.13159H1.48992V6.24463Z" fill="#FF4B55"/>
<path d="M2.39487 2.2168H2.27441V2.55591H2.39487V2.2168Z" fill="#FF4B55"/>
<path d="M2.39487 3.69141H2.27441V4.03291H2.39487V3.69141Z" fill="#FF4B55"/>
<path d="M2.27426 4.2023H2.15388V3.91722H2.03289V3.63464H1.91249V3.34961H1.79204V3.63464H1.67044V3.91722H1.55068V4.2023H1.42903V4.42833V4.48488H1.30799V4.2023H1.18696V3.91722H1.06716V3.63464H0.94549V3.34961H0.825723V3.63464H0.704686V3.91722H0.583648V4.2023H0.463246V4.42833V4.48488H0.342285V4.76991H0.463246V5.05495H0.583648V5.33752H0.704686V5.62017H0.825723V5.33752H0.94549V5.05495H1.06716V4.76991H0.94549V4.42833H1.06716V4.48488V4.65685H1.18693V5.11146H1.2484V5.39157L1.06716 5.39404V5.62012H0.94549V5.78965H0.825723V6.07468H0.704686V5.78965H0.583648V5.62012H0.463246V5.45053H0.342285V5.96164H0.463246V6.19019H0.583648V6.38676H0.704686V6.4998V6.50226V6.61284H0.583648V6.81431H0.463246V7.04039H0.342285V7.5515H0.463246V7.37946H0.583648V7.20992H0.704686V6.92738H0.825723V7.20995H0.94549V7.37948H1.06716V7.60802L1.2484 7.61049V7.8906H1.18693V8.34522H1.06716V8.51475V8.57376H0.94549V8.22974H1.06716V7.94717H0.94549V7.66459H0.825723V7.37951H0.704686V7.66459H0.583648V7.94717H0.463246V8.22974H0.342285V8.51477H0.463246V8.57378V8.79735H0.584918V9.08243H0.704686V9.36747H0.825723V9.65004H0.94549V9.36742H1.06716V9.08238H1.18693V8.7973H1.30797V8.51472H1.429V8.57373V8.7973H1.55065V9.08238H1.67161V9.36742H1.79201V9.64999H1.91247V9.36742H2.03287V9.08238H2.15386V8.7973H2.27426V8.51472H2.39471V8.22969H2.27426V7.94712H2.15388V7.66454H2.03289V7.37946H1.91249V7.66454H1.79204V7.94712H1.67044V8.22969H1.79204V8.51472V8.57373H1.67044V8.51472V8.34519H1.55068V7.89057H1.53344H1.48984V7.608H1.53344H1.56601H1.61024H1.67164V7.37946H1.79204V7.20992H1.91249V6.92738H2.03289V7.20995H2.15388V7.37948H2.27489V7.55153H2.39474V7.04042H2.27489V6.81434H2.15388V6.61286H2.03289V6.50229V6.4998V6.38676H2.15388V6.19019H2.27489V5.96164H2.39474V5.45053H2.27489V5.62012H2.15388V5.78965H2.03289V6.07468H1.91249V5.78965H1.79204V5.62012H1.67164V5.39404H1.61024H1.56601H1.53344H1.48984V5.11146H1.53344H1.55068V4.65685H1.67044V4.48488V4.42833H1.79204V4.48488V4.76991H1.67044V5.05495H1.79204V5.33752H1.91249V5.62017H2.03289V5.33752H2.15388V5.05495H2.27428V4.76991H2.39474V4.48488H2.27428L2.27426 4.2023ZM1.67164 5.96164V6.07468V6.19019H1.79204V6.38676H1.91249V6.4998V6.61284H1.79204V6.81431H1.67164V6.92735V7.04039H1.48984V7.30824H1.429V7.436H1.3688H1.30797V7.30824H1.2484V7.04039H1.06716V6.81431H0.94549V6.61284H0.825723V6.5047V6.49734V6.38676H0.94549V6.19019H1.06716V5.96164H1.2484V5.69385H1.30797V5.56357H1.3688H1.429V5.69134H1.48984V5.96164H1.67164Z" fill="#FF4B55"/>
<path d="M2.39487 5.11133H2.27441V5.33736H2.39487V5.11133Z" fill="#FF4B55"/>
<path d="M0.463271 1.76239V2.04496H0.584943V2.33H0.704711V2.61503H0.825748V2.89761H0.945516V2.61503H1.06719V2.32997H1.18696V2.04496H1.30799V1.76239H1.42903V2.04496H1.55068V2.33H1.67044V2.61503H1.79204V2.89761H1.91249V2.61503H2.03289V2.32997H2.15388V2.04496H2.27428V1.76239H2.39474V1.47728H2.27489V1.19471H2.15388V0.909699H2.03289V0.627127H1.91249V0.342041H1.79204V0.627127H1.67164V0.909699H1.55068V1.19473H1.42903V1.47731H1.30799V1.19471H1.18696V0.909699H1.06716V0.627127H1.06239C0.88435 0.770381 0.723957 0.934633 0.584918 1.11615V1.19473H0.526646C0.504887 1.22525 0.483838 1.25633 0.463271 1.28774V1.47731H0.349293C0.346982 1.48152 0.344596 1.48569 0.342285 1.48993V1.76239H0.463271ZM1.55065 1.47728H1.67161V1.19471H1.79201V0.909699H1.91247V1.19473H2.03287V1.47731H2.15386V1.76239H2.03287V2.04496H1.91247V2.33H1.79201V2.04496H1.67161V1.76239H1.55065V1.47728ZM0.584943 1.47728H0.704711V1.19471H0.825748V0.909699H0.945516V1.19473H1.06719V1.47731H1.18696V1.76239H1.06716V2.04496H0.94549V2.33H0.825723V2.04496H0.704686V1.76239H0.584918V1.47728H0.584943Z" fill="#FF4B55"/>
<path d="M2.33315 9.99171H2.39272V9.76563H2.33315V9.59366H2.27295V9.42651H2.09111V9.59366H2.03154V9.76563H1.9707V9.99171H2.03151V10.1612H2.09108V10.3308H2.27293V10.1612H2.33313L2.33315 9.99171ZM2.27295 9.93516H2.21212V10.0507H2.15128V9.93516H2.09108V9.82218H2.15128V9.70914H2.21212V9.82218H2.27295V9.93516Z" fill="#FF4B55"/>
<path d="M2.27441 6.49986V6.50232V6.67185H2.39489V6.50232V6.49986V6.33032H2.27441V6.49986Z" fill="#FF4B55"/>
<path d="M0.945451 1.47754H0.825684V1.76263H0.945451V1.47754Z" fill="#FF4B55"/>
<path d="M1.42902 8.96924H1.30798V9.3083H1.42902V8.96924Z" fill="#FF4B55"/>
<path d="M2.39487 8.96924H2.27441V9.3083H2.39487V8.96924Z" fill="#FF4B55"/>
<path d="M2.39487 10.4463H2.27441V10.7854H2.39487V10.4463Z" fill="#FF4B55"/>
<path d="M2.39487 7.66455H2.27441V7.89058H2.39487V7.66455Z" fill="#FF4B55"/>
<path d="M1.91245 1.47754H1.79199V1.76263H1.91245V1.47754Z" fill="#FF4B55"/>
</svg>
