<svg width="32" height="32" viewBox="0 0 32 32" fill="none" xmlns="http://www.w3.org/2000/svg">
<g clip-path="url(#clip0)">
<path d="M28.6825 4.16782H26.6736V2.57574C26.6736 2.11729 26.2985 1.74219 25.8401 1.74219C25.3816 1.74219 25.0065 2.11729 25.0065 2.57574V4.16782H16.8377V2.57574C16.8377 2.11729 16.4626 1.74219 16.0042 1.74219C15.5457 1.74219 15.1706 2.11729 15.1706 2.57574V4.16782H6.91847V2.57574C6.91847 2.11729 6.54337 1.74219 6.08492 1.74219C5.62647 1.74219 5.25137 2.11729 5.25137 2.57574V4.16782H3.32587C1.49206 4.16782 0 5.70989 0 7.5437V26.9237C0 28.7659 1.48372 30.2579 3.32587 30.2579H28.6742C30.5163 30.2579 32 28.7659 32 26.9321V7.5437C32.0084 5.70989 30.5163 4.16782 28.6825 4.16782ZM30.3413 26.9237C30.3413 27.8407 29.6077 28.5825 28.6908 28.5908H28.6825H3.32587C2.40896 28.5908 1.6671 27.849 1.6671 26.9321V26.9237V7.5437C1.6671 6.61846 2.40896 5.83492 3.32587 5.83492H5.25137V7.04357C5.25137 7.50202 5.62647 7.87712 6.08492 7.87712C6.54337 7.87712 6.91847 7.50202 6.91847 7.04357V5.83492H15.1706V7.04357C15.1706 7.50202 15.5457 7.87712 16.0042 7.87712C16.4626 7.87712 16.8377 7.50202 16.8377 7.04357V5.83492H25.0065V7.04357C25.0065 7.50202 25.3816 7.87712 25.8401 7.87712C26.2985 7.87712 26.6736 7.50202 26.6736 7.04357V5.83492H28.6825C29.6077 5.83492 30.3413 6.62679 30.3413 7.5437V26.9237Z" fill="#528DC7"/>
<path d="M13.812 11.2529H12.3533C11.8949 11.2529 11.5198 11.628 11.5198 12.0865C11.5198 12.5449 11.8949 12.92 12.3533 12.92H13.812C14.2705 12.92 14.6456 12.5449 14.6456 12.0865C14.6456 11.628 14.2705 11.2529 13.812 11.2529Z" fill="#528DC7"/>
<path d="M19.6133 11.2529H18.1546C17.6961 11.2529 17.321 11.628 17.321 12.0865C17.321 12.5449 17.6961 12.92 18.1546 12.92H19.6133C20.0718 12.92 20.4468 12.5449 20.4468 12.0865C20.4468 11.628 20.0801 11.2529 19.6133 11.2529Z" fill="#528DC7"/>
<path d="M25.4649 11.2529H24.0062C23.5477 11.2529 23.1726 11.628 23.1726 12.0865C23.1726 12.5449 23.5477 12.92 24.0062 12.92H25.4649C25.9233 12.92 26.2984 12.5449 26.2984 12.0865C26.2984 11.628 25.9233 11.2529 25.4649 11.2529Z" fill="#528DC7"/>
<path d="M13.812 17.0044H12.3533C11.8949 17.0044 11.5198 17.3795 11.5198 17.8379C11.5198 18.2964 11.8949 18.6715 12.3533 18.6715H13.812C14.2705 18.6715 14.6456 18.2964 14.6456 17.8379C14.6456 17.3795 14.2705 17.0044 13.812 17.0044Z" fill="#528DC7"/>
<path d="M7.96881 17.0044H6.50176C6.04331 17.0044 5.66821 17.3795 5.66821 17.8379C5.66821 18.2964 6.04331 18.6715 6.50176 18.6715H7.96048C8.41893 18.6715 8.79403 18.2964 8.79403 17.8379C8.79403 17.3795 8.42726 17.0044 7.96881 17.0044Z" fill="#528DC7"/>
<path d="M19.6133 17.0044H18.1546C17.6961 17.0044 17.321 17.3795 17.321 17.8379C17.321 18.2964 17.6961 18.6715 18.1546 18.6715H19.6133C20.0718 18.6715 20.4468 18.2964 20.4468 17.8379C20.4468 17.3795 20.0801 17.0044 19.6133 17.0044Z" fill="#528DC7"/>
<path d="M25.4649 17.0044H24.0062C23.5477 17.0044 23.1726 17.3795 23.1726 17.8379C23.1726 18.2964 23.5477 18.6715 24.0062 18.6715H25.4649C25.9233 18.6715 26.2984 18.2964 26.2984 17.8379C26.2984 17.3795 25.9233 17.0044 25.4649 17.0044Z" fill="#528DC7"/>
<path d="M13.812 22.6726H12.3533C11.8949 22.6726 11.5198 23.0477 11.5198 23.5062C11.5198 23.9646 11.8949 24.3397 12.3533 24.3397H13.812C14.2705 24.3397 14.6456 23.9646 14.6456 23.5062C14.6456 23.0477 14.2705 22.6726 13.812 22.6726Z" fill="#528DC7"/>
<path d="M7.96881 22.6726H6.50176C6.04331 22.6726 5.66821 23.0477 5.66821 23.5062C5.66821 23.9646 6.04331 24.3397 6.50176 24.3397H7.96048C8.41893 24.3397 8.79403 23.9646 8.79403 23.5062C8.79403 23.0477 8.42726 22.6726 7.96881 22.6726Z" fill="#528DC7"/>
<path d="M19.6133 22.6726H18.1546C17.6961 22.6726 17.321 23.0477 17.321 23.5062C17.321 23.9646 17.6961 24.3397 18.1546 24.3397H19.6133C20.0718 24.3397 20.4468 23.9646 20.4468 23.5062C20.4468 23.0477 20.0801 22.6726 19.6133 22.6726Z" fill="#528DC7"/>
</g>
<defs>
<clipPath id="clip0">
<rect width="32" height="32" fill="white"/>
</clipPath>
</defs>
</svg>
