<svg width="51" height="52" viewBox="0 0 51 52" fill="none" xmlns="http://www.w3.org/2000/svg">
<circle cx="25.5" cy="23.5" r="23.5" fill="white" fill-opacity="0.07"/>
<g clip-path="url(#clip0)" filter="url(#filter0_d)">
<path d="M24.1514 22.4158C24.9417 21.5587 25.3771 20.4088 25.3771 19.1779C25.3771 16.8342 23.703 14.4615 20.5029 14.4615C19.0136 14.4615 17.7572 14.9731 16.8694 15.9408C16.0829 16.7981 15.6499 17.9477 15.6499 19.1779C15.6499 21.5219 17.3169 23.8943 20.5029 23.8943C21.9977 23.8944 23.2596 23.3833 24.1514 22.4158ZM20.5029 16.6545C22.2563 16.6545 23.0549 17.9634 23.0549 19.1795C23.0549 19.8411 22.8322 20.4535 22.4277 20.9038C21.9763 21.4067 21.3204 21.6726 20.5313 21.6726C18.7336 21.6726 17.9146 20.3638 17.9146 19.1478C17.9146 17.9069 18.715 16.6545 20.5029 16.6545Z" fill="#528DC7"/>
<path d="M32.1417 16.2812C31.8517 16.2864 31.4557 16.4673 31.2618 16.6829L16.8656 32.6889C16.6717 32.9046 16.8091 33.2071 17.0991 33.2071H18.9833C19.2733 33.2071 19.6689 33.0303 19.8625 32.8143L34.1696 16.8116C34.3631 16.5954 34.3503 16.2438 33.8711 16.2439L32.1417 16.2812Z" fill="#528DC7"/>
<path d="M30.5677 25.6945C29.1072 25.6945 27.8746 26.1965 27.0036 27.1458C26.2321 27.9865 25.8071 29.1144 25.8071 30.3212C25.8071 32.6203 27.4424 34.9478 30.5678 34.9478C32.0346 34.9478 33.2721 34.4463 34.1471 33.4974C34.9224 32.6564 35.3494 31.5285 35.3494 30.3212C35.3494 28.0221 33.707 25.6945 30.5677 25.6945ZM30.596 32.8247C28.8469 32.8247 28.05 31.5112 28.05 30.2914C28.05 29.6271 28.2724 29.0124 28.6767 28.5604C29.1273 28.0561 29.7812 27.7895 30.5678 27.7895C32.317 27.7895 33.1136 29.1027 33.1136 30.3229C33.1136 30.987 32.891 31.6019 32.4871 32.0538C32.0363 32.5581 31.3824 32.8247 30.596 32.8247Z" fill="#528DC7"/>
</g>
<defs>
<filter id="filter0_d" x="0.256348" y="1.46155" width="50.4872" height="50.4872" filterUnits="userSpaceOnUse" color-interpolation-filters="sRGB">
<feFlood flood-opacity="0" result="BackgroundImageFix"/>
<feColorMatrix in="SourceAlpha" type="matrix" values="0 0 0 0 0 0 0 0 0 0 0 0 0 0 0 0 0 0 127 0"/>
<feOffset dy="2"/>
<feGaussianBlur stdDeviation="7.5"/>
<feColorMatrix type="matrix" values="0 0 0 0 0.418212 0 0 0 0 0.757619 0 0 0 0 0.920833 0 0 0 0.9 0"/>
<feBlend mode="normal" in2="BackgroundImageFix" result="effect1_dropShadow"/>
<feBlend mode="normal" in="SourceGraphic" in2="effect1_dropShadow" result="shape"/>
</filter>
<clipPath id="clip0">
<rect width="20.4872" height="20.4872" fill="white" transform="translate(15.2563 14.4615)"/>
</clipPath>
</defs>
</svg>
