<svg width="25" height="25" viewBox="0 0 25 25" fill="none" xmlns="http://www.w3.org/2000/svg">
<g clip-path="url(#clip0)">
<path d="M11.0095 0C4.93901 0 0 4.93901 0 11.0095C0 17.0803 4.93901 22.0189 11.0095 22.0189C17.0803 22.0189 22.0189 17.0803 22.0189 11.0095C22.0189 4.93901 17.0803 0 11.0095 0ZM11.0095 19.9865C6.05962 19.9865 2.03252 15.9594 2.03252 11.0095C2.03252 6.05967 6.05962 2.03252 11.0095 2.03252C15.9593 2.03252 19.9864 6.05962 19.9864 11.0095C19.9864 15.9593 15.9593 19.9865 11.0095 19.9865Z" fill="white"/>
<path d="M24.7026 23.265L18.876 17.4384C18.479 17.0414 17.836 17.0414 17.439 17.4384C17.042 17.8351 17.042 18.4787 17.439 18.8754L23.2656 24.702C23.4641 24.9005 23.7239 24.9997 23.9841 24.9997C24.2439 24.9997 24.504 24.9005 24.7026 24.702C25.0996 24.3053 25.0996 23.6616 24.7026 23.265Z" fill="white"/>
</g>
<defs>
<clipPath id="clip0">
<rect width="25" height="25" fill="white"/>
</clipPath>
</defs>
</svg>
