<svg width="16" height="16" viewBox="0 0 16 16" fill="none" xmlns="http://www.w3.org/2000/svg">
<g clip-path="url(#clip0)">
<path d="M15.4365 9.26202C15.9138 5.24402 15.2071 2.70735 13.9325 1.56002L13.9331 1.55935C11.8758 -0.399984 4.92781 -0.689984 2.46648 1.64735C1.36114 2.79068 0.971809 4.46868 0.929142 6.54602C0.886475 8.62402 0.835809 12.5167 4.46314 13.5727H4.46648L4.46314 15.1854C4.46314 15.1854 4.43848 15.8387 4.85581 15.97C5.33314 16.1247 5.54914 15.8214 7.03381 14.048C9.51648 14.2634 11.4231 13.77 11.6398 13.698C12.1411 13.53 14.9778 13.1547 15.4365 9.26202ZM7.27848 12.9134C7.27848 12.9134 5.70714 14.8727 5.21848 15.3814C5.05848 15.5467 4.88314 15.5314 4.88581 15.2034C4.88581 14.988 4.89781 12.526 4.89781 12.526C1.82248 11.6447 2.00381 8.33002 2.03714 6.59602C2.07048 4.86135 2.38781 3.44068 3.32381 2.48402C5.48314 0.45935 11.5745 0.912016 13.1265 2.37068C15.0238 4.05268 14.3485 8.80468 14.3525 8.96668C13.9625 12.216 11.6638 12.422 11.2411 12.5627C11.0605 12.6227 9.38381 13.054 7.27848 12.9134Z" fill="#C450E2"/>
<path d="M8.14794 2.86475C7.89128 2.86475 7.89128 3.26475 8.14794 3.26808C10.1393 3.28341 11.7793 4.67141 11.7973 7.21741C11.7973 7.48608 12.1906 7.48275 12.1873 7.21408H12.1866C12.1653 4.47075 10.3746 2.88008 8.14794 2.86475Z" fill="#C450E2"/>
<path d="M10.7673 6.79511C10.7613 7.06045 11.154 7.07311 11.1573 6.80445C11.19 5.29178 10.2573 4.04578 8.50467 3.91445C8.248 3.89578 8.22133 4.29911 8.47733 4.31778C9.99734 4.43311 10.798 5.47045 10.7673 6.79511Z" fill="#C450E2"/>
<path d="M10.3471 8.51615C10.0177 8.32549 9.68239 8.44415 9.54373 8.63148L9.25373 9.00682C9.10639 9.19749 8.83106 9.17215 8.83106 9.17215C6.82173 8.64082 6.2844 6.53815 6.2844 6.53815C6.2844 6.53815 6.25973 6.25348 6.44373 6.10082L6.8064 5.80082C6.98773 5.65682 7.1024 5.31015 6.91773 4.96948C6.4244 4.07815 6.09307 3.77082 5.9244 3.53482C5.74707 3.31282 5.4804 3.26282 5.20307 3.41282H5.19707C4.6204 3.75015 3.98907 4.38148 4.19107 5.03148C4.53574 5.71682 5.16907 7.90148 7.18773 9.55215C8.1364 10.3328 9.63773 11.1328 10.2751 11.3175L10.2811 11.3268C10.9091 11.5362 11.5197 10.8802 11.8457 10.2862V10.2815C11.9904 9.99415 11.9424 9.72215 11.7311 9.54415C11.3564 9.17882 10.7911 8.77549 10.3471 8.51615Z" fill="#C450E2"/>
<path d="M8.77915 5.40278C9.41983 5.44012 9.73049 5.77479 9.76383 6.46212C9.77583 6.73079 10.1658 6.71212 10.1538 6.44346C10.1112 5.54612 9.64316 5.04612 8.80049 4.99945C8.54382 4.98412 8.51982 5.38745 8.77915 5.40278Z" fill="#C450E2"/>
</g>
<defs>
<clipPath id="clip0">
<rect width="16" height="16" fill="white"/>
</clipPath>
</defs>
</svg>
