<svg width="16" height="16" viewBox="0 0 16 16" fill="none" xmlns="http://www.w3.org/2000/svg">
<g clip-path="url(#clip0)">
<path d="M7.99547 0.00415424C3.5798 0.00509118 0.000948878 3.58547 0.00188582 8.00114C0.00219814 9.53014 0.44097 11.027 1.26611 12.3142L0.0221863 15.5416C-0.0440557 15.7133 0.0413937 15.9062 0.213042 15.9724C0.251426 15.9872 0.292183 15.9948 0.333315 15.9947C0.37148 15.9949 0.409363 15.9884 0.445248 15.9754L3.77662 14.7861C7.52478 17.1205 12.4557 15.9744 14.79 12.2262C17.1244 8.47801 15.9783 3.54715 12.2302 1.21278C10.9596 0.421439 9.49236 0.00268636 7.99547 0.00415424Z" fill="#4CAF50"/>
<path d="M11.8073 9.36585C11.8073 9.36585 10.9911 8.96608 10.48 8.69959C9.90173 8.40176 9.22213 8.95943 8.90232 9.27659C8.40458 9.08539 7.94998 8.79681 7.56511 8.42775C7.19599 8.04294 6.90741 7.58834 6.71627 7.09054C7.03343 6.77007 7.58975 6.09113 7.29327 5.51281C7.03008 5.00112 6.62701 4.1856 6.62701 4.18494C6.57045 4.0727 6.45555 4.00183 6.32984 4.00171H5.66358C4.69328 4.1693 3.98779 5.01592 3.99791 6.00053C3.99791 7.04656 5.24983 9.05606 6.09401 9.90087C6.9382 10.7457 8.94767 11.997 9.99436 11.997C10.979 12.0071 11.8256 11.3016 11.9932 10.3313V9.66505C11.9933 9.538 11.9212 9.42197 11.8073 9.36585Z" fill="#FAFAFA"/>
</g>
<defs>
<clipPath id="clip0">
<rect width="16" height="16" fill="white"/>
</clipPath>
</defs>
</svg>
