<svg width="24" height="24" viewBox="0 0 24 24" fill="none" xmlns="http://www.w3.org/2000/svg">
<path d="M23.1427 0H13.7144C13.4871 5.02218e-05 13.2691 0.0903993 13.1084 0.251159L0.251636 13.1079C-0.0832934 13.4425 -0.0835948 13.9852 0.250983 14.3201C0.251184 14.3203 0.251435 14.3205 0.251636 14.3208L9.67992 23.749C10.0147 24.0836 10.5572 24.0836 10.8919 23.749L23.7487 10.8923C23.9096 10.7313 24 10.513 23.9998 10.2854V0.857136C23.9998 0.383745 23.6161 0 23.1427 0ZM18 7.71407C17.0532 7.71407 16.2857 6.94658 16.2857 5.99985C16.2857 5.05312 17.0532 4.28563 18 4.28563C18.9467 4.28563 19.7142 5.05312 19.7142 5.99985C19.7142 6.94658 18.9467 7.71407 18 7.71407Z" fill="#528DC7"/>
</svg>
