<svg width="28" height="28" viewBox="0 0 28 28" fill="none" xmlns="http://www.w3.org/2000/svg">
<g clip-path="url(#clip0)">
<path d="M17.7209 15.2077C17.0745 15.2077 16.5505 15.7317 16.5505 16.3782C16.5505 17.0246 17.0745 17.5486 17.7209 17.5486C18.3673 17.5486 18.8914 17.0246 18.8914 16.3782C18.8914 15.7317 18.3673 15.2077 17.7209 15.2077Z" fill="#528DC7"/>
<path d="M10.2849 10.4571C9.63849 10.4571 9.11447 10.9811 9.11447 11.6275C9.11447 12.274 9.63849 12.798 10.2849 12.798C10.9313 12.798 11.4553 12.274 11.4553 11.6275C11.4553 10.9811 10.9313 10.4571 10.2849 10.4571Z" fill="#528DC7"/>
<path d="M0.634804 12.4538L1.05937 13.0333C1.51836 13.6644 1.52984 14.5192 1.07658 15.1618L0.66349 15.747C0.0323772 16.6421 0.324984 17.8871 1.2946 18.4092L1.92571 18.7477C2.6142 19.1149 2.99287 19.8837 2.86091 20.6582L2.74043 21.3639C2.55683 22.4426 3.3658 23.4409 4.46164 23.4868L5.17881 23.5155C5.9591 23.5499 6.63611 24.0777 6.85413 24.8293L7.05494 25.5178C7.35902 26.5735 8.51797 27.1185 9.52775 26.6825L10.1876 26.4014C10.9047 26.0916 11.7424 26.2752 12.2645 26.8604L12.7407 27.3939C13.4693 28.2087 14.7488 28.2029 15.4717 27.371L15.9422 26.8317C16.4585 26.2407 17.2904 26.0457 18.0134 26.344L18.6789 26.6194C19.6944 27.0382 20.8419 26.4702 21.1345 25.4145L21.3238 24.7203C21.5304 23.963 22.1959 23.4237 22.9762 23.3835L23.6934 23.3433C24.7892 23.2802 25.581 22.2705 25.3802 21.1918L25.2482 20.4861C25.1048 19.7173 25.472 18.9428 26.1547 18.5641L26.7801 18.2141C27.7382 17.6805 28.0136 16.4298 27.3653 15.5462L26.9407 14.9668C26.4817 14.3356 26.4703 13.4808 26.9235 12.8382L27.3366 12.253C27.9677 11.3579 27.6751 10.1129 26.7055 9.59083L26.0744 9.25232C25.3859 8.88513 25.0072 8.11632 25.1392 7.34177L25.2597 6.63607C25.4433 5.55744 24.6343 4.55914 23.5385 4.51324L22.8213 4.48455C22.041 4.45013 21.364 3.92229 21.146 3.17069L20.9452 2.4822C20.6411 1.42653 19.4821 0.881474 18.4723 1.31752L17.8125 1.59865C17.0954 1.90847 16.2577 1.72487 15.7356 1.13966L15.2594 0.606077C14.525 -0.208632 13.2456 -0.202892 12.5284 0.629028L12.0579 1.16834C11.5416 1.75929 10.7097 1.95436 9.98675 1.65602L9.32121 1.38062C8.30569 0.961796 7.15821 1.5298 6.86561 2.58548L6.67627 3.2797C6.46973 4.03704 5.80419 4.57635 5.0239 4.61651L4.30673 4.65667C3.21089 4.71979 2.41913 5.72957 2.61994 6.8082L2.7519 7.5139C2.89533 8.2827 2.52814 9.05725 1.84539 9.43592L1.22002 9.7859C0.261873 10.3137 -0.0135212 11.5645 0.634804 12.4538ZM20.5493 16.3782C20.5493 17.9387 19.2871 19.201 17.7265 19.201C16.1659 19.201 14.9037 17.9387 14.9037 16.3782C14.9037 14.8176 16.1659 13.5554 17.7265 13.5554C19.2871 13.5554 20.5493 14.8233 20.5493 16.3782ZM17.1814 9.09741C17.4224 8.80481 17.8584 8.76464 18.151 9.00562C18.4437 9.24659 18.4838 9.68263 18.2428 9.97523L10.8359 18.8969C10.5949 19.1895 10.1589 19.2296 9.86626 18.9887C9.57365 18.7477 9.53349 18.3117 9.77446 18.019L17.1814 9.09741ZM10.2851 8.80481C11.8457 8.80481 13.1079 10.067 13.1079 11.6276C13.1079 13.1882 11.8457 14.4504 10.2851 14.4504C8.72452 14.4504 7.46229 13.1882 7.46229 11.6276C7.46229 10.067 8.72452 8.80481 10.2851 8.80481Z" fill="#528DC7"/>
</g>
<defs>
<clipPath id="clip0">
<rect width="28" height="28" fill="white" transform="translate(28 28) rotate(-180)"/>
</clipPath>
</defs>
</svg>
