<svg width="25" height="25" viewBox="0 0 25 25" fill="none" xmlns="http://www.w3.org/2000/svg">
<g clip-path="url(#clip0)">
<path d="M24.6087 11.761C24.5835 11.7441 24.5575 11.7285 24.5306 11.7143L22.7565 10.7589L12.9181 15.9678C12.6568 16.1063 12.3438 16.1063 12.0824 15.9678L2.24408 10.7589L0.469949 11.7143C0.0387622 11.9431 -0.1253 12.4782 0.103582 12.9094C0.117811 12.9362 0.133402 12.9622 0.1503 12.9875L12.5003 19.5258L24.8503 12.9875C25.1223 12.5821 25.0141 12.033 24.6087 11.761Z" fill="#528DC7"/>
<path d="M24.892 17.433C24.8093 17.2798 24.6836 17.1541 24.5304 17.0714L22.7563 16.1161L12.9179 21.325C12.6565 21.4634 12.3436 21.4634 12.0822 21.325L2.2438 16.1161L0.469666 17.0714C0.0357059 17.3056 -0.126159 17.8473 0.108059 18.2812C0.19077 18.4345 0.316485 18.5602 0.469666 18.6428L12.0768 24.8928C12.341 25.0351 12.659 25.0351 12.9232 24.8928L24.5304 18.6428C24.9643 18.4086 25.1262 17.867 24.892 17.433Z" fill="#528DC7"/>
<path d="M24.6087 6.40415C24.5835 6.38725 24.5575 6.37166 24.5306 6.35743L12.9235 0.107417C12.6593 -0.0348293 12.3413 -0.0348293 12.0771 0.107417L0.469949 6.35743C0.0387622 6.58631 -0.1253 7.1214 0.103582 7.55259C0.117811 7.57937 0.133402 7.60543 0.1503 7.63064L12.5003 14.169L24.8503 7.63064C25.1223 7.22525 25.0141 6.67614 24.6087 6.40415Z" fill="#528DC7"/>
</g>
<defs>
<clipPath id="clip0">
<rect width="25" height="25" fill="white"/>
</clipPath>
</defs>
</svg>
