<svg width="22" height="26" viewBox="0 0 22 26" fill="none" xmlns="http://www.w3.org/2000/svg">
<path d="M16.2946 4.91278C13.9313 2.0869 11.5985 0.250201 11.5005 0.173524C10.9679 -0.243021 10.1873 0.137623 10.1873 0.813347V4.3862C10.1873 6.23112 7.74578 6.88039 6.83078 5.27687C6.54626 4.77954 5.85444 4.72713 5.4963 5.16465C3.0375 8.16531 0.843872 11.9487 0.843872 15.8441C0.843872 21.4441 5.39981 26 10.9998 26C16.5998 26 21.1557 21.4441 21.1557 15.8441C21.1557 11.8479 18.8483 7.96677 16.2946 4.91278ZM6.53118 13.0004C6.53118 12.1042 7.26038 11.3755 8.15613 11.3755C9.05188 11.3755 9.78108 12.1042 9.78108 13.0004C9.78108 13.8967 9.05188 14.6254 8.15613 14.6254C7.26038 14.6254 6.53118 13.8967 6.53118 13.0004ZM8.79748 19.9989C8.52347 20.3521 8.01283 20.4178 7.65747 20.1416C7.30303 19.8658 7.23956 19.3555 7.51478 19.0016L13.2021 11.6893C13.4778 11.3349 13.9882 11.2714 14.3421 11.5466C14.6965 11.8224 14.76 12.3327 14.4848 12.6866L8.79748 19.9989ZM13.8434 20.3127C12.9477 20.3127 12.2185 19.584 12.2185 18.6878C12.2185 17.7915 12.9477 17.0628 13.8434 17.0628C14.7392 17.0628 15.4684 17.7915 15.4684 18.6878C15.4684 19.584 14.7392 20.3127 13.8434 20.3127Z" fill="#528DC7"/>
</svg>
