<svg width="24" height="24" viewBox="0 0 24 24" fill="none" xmlns="http://www.w3.org/2000/svg">
<path d="M3.75 19.5H9.75V20.25H3.75V19.5Z" fill="#528DC7"/>
<path d="M7.125 10.5C7.02554 10.5 6.93016 10.5395 6.85983 10.6098C6.78951 10.6802 6.75 10.7755 6.75 10.875V15.75C6.74969 15.8275 6.72537 15.903 6.68037 15.9662C6.63538 16.0293 6.57193 16.0769 6.49875 16.1025C6.42558 16.129 6.34591 16.1317 6.27114 16.1101C6.19637 16.0885 6.13034 16.0439 6.0825 15.9825L3.0825 12.2325C3.02895 12.1669 2.9998 12.0847 3 12V4.5C3 4.30109 2.92098 4.11032 2.78033 3.96967C2.63968 3.82902 2.44891 3.75 2.25 3.75C2.05109 3.75 1.86032 3.82902 1.71967 3.96967C1.57902 4.11032 1.5 4.30109 1.5 4.5V15.2438L4.305 18.75H9.13125L10.4587 15.765L7.65 10.5H7.125Z" fill="#528DC7"/>
<path d="M12 7.5C12.0735 7.50037 12.1453 7.52256 12.2062 7.56375L13.875 8.67375V1.5H10.125V8.67375L11.7938 7.56375C11.8547 7.52256 11.9265 7.50037 12 7.5Z" fill="#528DC7"/>
<path d="M3.89612 22.5H8.99986V21H4.39487L3.89612 22.5Z" fill="#528DC7"/>
<path d="M12.795 15.5737L15.795 9.94875C15.8264 9.88844 15.8738 9.83796 15.932 9.80289C15.9902 9.76782 16.057 9.74952 16.125 9.75H16.875C17.1731 9.75089 17.4587 9.8697 17.6695 10.0805C17.8803 10.2913 17.9991 10.5769 18 10.875V14.6813L20.25 11.8687V4.5C20.2523 4.13798 20.3855 3.78902 20.625 3.5175V1.875C20.625 1.77554 20.5855 1.68016 20.5152 1.60984C20.4448 1.53951 20.3495 1.5 20.25 1.5H14.625V9.375C14.6255 9.44298 14.6072 9.50976 14.5721 9.568C14.537 9.62623 14.4866 9.67364 14.4263 9.705C14.367 9.73746 14.2999 9.75289 14.2324 9.74958C14.1648 9.74627 14.0996 9.72435 14.0438 9.68625L12 8.325L9.95625 9.68625C9.90066 9.72492 9.83532 9.74719 9.76769 9.7505C9.70006 9.75382 9.63285 9.73805 9.57375 9.705C9.51344 9.67364 9.46296 9.62623 9.42789 9.568C9.39282 9.50976 9.37452 9.44298 9.375 9.375V1.5H3.75C3.65054 1.5 3.55516 1.53951 3.48484 1.60984C3.41451 1.68016 3.375 1.77554 3.375 1.875V3.5175C3.61447 3.78902 3.74766 4.13798 3.75 4.5V11.8687L6 14.6813V10.875C6.00089 10.5769 6.1197 10.2913 6.33049 10.0805C6.54127 9.8697 6.82691 9.75089 7.125 9.75H7.875C7.94298 9.74952 8.00976 9.76782 8.06799 9.80289C8.12623 9.83796 8.17364 9.88844 8.205 9.94875L11.205 15.5737C11.2327 15.624 11.2481 15.6801 11.25 15.7374C11.252 15.7947 11.2404 15.8517 11.2162 15.9037L10.785 16.875H13.215L12.7838 15.9037C12.7596 15.8517 12.748 15.7947 12.75 15.7374C12.7519 15.6801 12.7673 15.624 12.795 15.5737Z" fill="#528DC7"/>
<path d="M21.7501 3.75C21.5514 3.75059 21.361 3.8298 21.2205 3.97033C21.0799 4.11085 21.0007 4.30127 21.0001 4.5V12C21.0003 12.0847 20.9712 12.1669 20.9176 12.2325L17.9176 15.9825C17.8698 16.0439 17.8038 16.0885 17.729 16.1101C17.6542 16.1317 17.5745 16.129 17.5014 16.1025C17.4282 16.0769 17.3648 16.0293 17.3198 15.9662C17.2748 15.903 17.2504 15.8275 17.2501 15.75V10.875C17.2501 10.7755 17.2106 10.6802 17.1403 10.6098C17.07 10.5395 16.9746 10.5 16.8751 10.5H16.3501L13.5414 15.765L14.8689 18.75H19.6951L22.5001 15.2438V4.5C22.4995 4.30127 22.4203 4.11085 22.2798 3.97033C22.1393 3.8298 21.9489 3.75059 21.7501 3.75Z" fill="#528DC7"/>
<path d="M15 21V22.5H20.1038L19.605 21H15Z" fill="#528DC7"/>
<path d="M14.25 19.5H20.25V20.25H14.25V19.5Z" fill="#528DC7"/>
</svg>
