<svg width="13" height="13" viewBox="0 0 13 13" fill="none" xmlns="http://www.w3.org/2000/svg">
<path d="M6.50001 0C2.91595 0 0 2.91595 0 6.50001C0 10.0841 2.91595 13 6.50001 13C10.0841 13 13 10.0841 13 6.50001C13 2.91595 10.084 0 6.50001 0ZM6.92282 10.3566C6.61401 10.4081 5.99954 10.5367 5.6875 10.5625C5.42338 10.5844 5.17414 10.4332 5.0222 10.2162C4.86986 9.99916 4.83336 9.72145 4.9238 9.4723L6.15247 6.09377H4.875C4.87391 5.38978 5.40195 4.87215 6.07733 4.67349C6.39963 4.57866 7.00011 4.44889 7.31249 4.46878C7.49965 4.48068 7.82586 4.5981 7.9778 4.81513C8.13014 5.03214 8.16664 5.30985 8.0762 5.559L6.84753 8.93754H8.12461C8.12485 9.64071 7.61649 10.241 6.92282 10.3566ZM7.31249 4.06251C6.86375 4.06251 6.49999 3.6987 6.49999 3.25001C6.49999 2.80126 6.86375 2.4375 7.31249 2.4375C7.76124 2.4375 8.125 2.80126 8.125 3.25001C8.125 3.69873 7.76126 4.06251 7.31249 4.06251Z" fill="black"/>
</svg>
