<svg width="98" height="37" viewBox="0 0 98 37" fill="none" xmlns="http://www.w3.org/2000/svg">
<path fill-rule="evenodd" clip-rule="evenodd" d="M55.8682 12.2082C54.557 10.4415 52.7052 9.16913 50.6048 8.59167C49.6968 8.3397 42.9669 8.2063 40.0536 8.2063L42.4814 12.2477C45.2685 12.2477 49.4249 12.4009 50.1629 12.6973C51.3175 13.1616 52.3067 13.971 53.0001 15.0188C53.6936 16.0665 54.0587 17.3035 54.0474 18.5667C54.0522 19.995 53.5773 21.3821 52.7013 22.4981C51.8252 23.6141 50.6007 24.392 49.2306 24.7029C48.7839 24.8067 45.1034 24.8511 43.1175 24.8511L33.552 4.14515H46.8854C48.153 4.11621 49.4202 4.21718 50.6679 4.44652C53.3811 4.9688 55.872 6.32399 57.8056 8.32982C57.002 9.53353 56.3496 10.8348 55.8633 12.2032L55.8682 12.2082ZM82.2048 2.77167C79.3954 1.04171 76.1707 0.13551 72.887 0.153158C70.5778 0.117641 68.2847 0.550175 66.1414 1.42555C63.9981 2.30092 62.0475 3.60162 60.4033 5.25184C57.8934 2.73253 54.689 1.0506 51.2166 0.42983C49.722 0.186813 48.2092 0.0793449 46.696 0.108693H27.1572L40.4615 28.9024H45.555C46.9018 28.9397 48.2496 28.8885 49.59 28.7492C51.9372 28.3813 54.0706 27.1509 55.5866 25.2908C55.6885 25.1673 55.7711 25.0389 55.8633 24.9104C56.3476 26.2813 57.0002 27.5844 57.8056 28.7888C55.6571 31.0088 52.8401 32.4333 49.8036 32.8351C48.4497 32.9666 47.0894 33.0161 45.7298 32.9833H38.4464L22.491 0H17.9073L0 37H13.7267L17.548 29.0951H27.3514L25.4092 25.0537H19.5145L22.4279 18.9965L20.1506 14.2684L11.1338 32.9635H6.52589L20.1943 4.72813L30.0511 25.0537L31.9934 29.0951L35.7904 37H45.7249C47.8177 37 49.1918 36.9605 49.8861 36.8715C53.8513 36.4671 57.561 34.694 60.3985 31.847C62.0416 33.5011 63.9923 34.8054 66.1366 35.6834C68.281 36.5614 70.5758 36.9955 72.887 36.9605C74.8001 36.9605 75.9508 36.9605 75.9508 36.9605V33.1859H72.887C70.9907 33.2195 69.1077 32.8577 67.354 32.1227C65.6003 31.3877 64.0132 30.2951 62.6903 28.9123C61.3294 27.5674 60.2541 25.9527 59.5309 24.1682C58.8076 22.3836 58.4518 20.4671 58.4854 18.5371C58.4524 16.6071 58.8084 14.6907 59.5317 12.9063C60.2549 11.1218 61.3299 9.50711 62.6903 8.16184C64.0623 6.77331 65.6948 5.67974 67.4906 4.9462C69.2865 4.21265 71.209 3.85412 73.1437 3.89191C75.0785 3.92971 76.9861 4.36307 78.7529 5.16621C80.5197 5.96935 82.1098 7.12587 83.4284 8.56697L80.1169 10.5284C78.5895 9.07965 76.6782 8.1182 74.6195 7.76292C72.5607 7.40763 70.4448 7.6741 68.5333 8.52936C66.6218 9.38461 64.9986 10.7912 63.8643 12.5751C62.73 14.359 62.1345 16.4421 62.1513 18.5667C62.1287 19.9982 62.3945 21.4193 62.9323 22.7423C63.4701 24.0653 64.2685 25.2622 65.2783 26.2592C66.2604 27.2874 67.4393 28.0998 68.7421 28.6462C70.045 29.1926 71.4441 29.4614 72.853 29.436H75.9266V25.7108H72.8433C70.9858 25.6979 69.2078 24.9428 67.8925 23.6082C66.5773 22.2736 65.8302 20.4665 65.8124 18.5766C65.7997 17.6353 65.9772 16.7015 66.3338 15.8329C66.6905 14.9643 67.2187 14.1796 67.8857 13.5273C68.6636 12.7341 69.6145 12.139 70.6611 11.7903C71.7077 11.4416 72.8204 11.3492 73.9087 11.5206C74.997 11.692 76.0301 12.1224 76.9241 12.7767C77.8181 13.431 78.5477 14.2908 79.0536 15.2862L88.6579 9.65883C87.1495 6.81822 84.9214 4.44021 82.2048 2.77167Z" fill="white"/>
<path fill-rule="evenodd" clip-rule="evenodd" d="M87.5654 28.6997C87.5654 26.5012 85.492 24.9795 83.3847 24.9795C81.1317 24.9795 79.1458 26.2146 79.1458 29.1839C79.1458 29.5792 79.2672 29.7224 79.6314 29.7224H81.1803C81.5493 29.7224 81.6658 29.5248 81.6658 29.2284C81.6639 28.9899 81.7083 28.7533 81.7964 28.5322C81.8845 28.3112 82.0145 28.11 82.1792 27.9402C82.3438 27.7704 82.5398 27.6353 82.7558 27.5426C82.9718 27.45 83.2037 27.4017 83.4381 27.4004C84.283 27.4004 84.9336 27.7956 84.9336 28.7245C84.9336 29.6533 83.7877 30.6315 82.6612 31.6196C80.9521 33.1018 79.4614 34.4259 79.4614 34.4259C79.3543 34.5168 79.2698 34.6323 79.215 34.7628C79.1601 34.8933 79.1364 35.0352 79.1458 35.1769V36.5009C79.1458 36.9159 79.2138 36.995 79.6314 36.995H86.9147C87.3226 36.995 87.4294 36.8023 87.4294 36.5009V35.0188C87.4294 34.6976 87.3226 34.5247 86.9147 34.5247H83.2099C83.2099 34.5247 84.4918 33.3982 85.526 32.4447C86.5603 31.4912 87.5654 30.5278 87.5654 28.6997Z" fill="white"/>
<path fill-rule="evenodd" clip-rule="evenodd" d="M93.7612 32.1877H91.2266L93.7612 28.8232V32.1877ZM97.4903 32.1877H96.4318V25.7304C96.4318 25.3203 96.2375 25.2363 95.9462 25.2363H94.1982C94.092 25.2485 93.9897 25.2839 93.8984 25.3402C93.807 25.3965 93.7287 25.4723 93.6689 25.5624L88.6191 32.1087C88.4613 32.2795 88.3684 32.5019 88.3569 32.7361V34.2183C88.3569 34.5394 88.4638 34.7124 88.8668 34.7124H93.7612V36.4959C93.7612 36.9109 93.9505 36.99 94.271 36.99H95.9219C96.2375 36.99 96.4075 36.8862 96.4075 36.4959V34.6975H97.466C97.869 34.6975 97.9758 34.4999 97.9758 34.2035V32.7213C98.0001 32.3903 97.8933 32.1877 97.4903 32.1877Z" fill="white"/>
</svg>
